<svg width="41" height="41" viewBox="0 0 41 41" fill="none" xmlns="http://www.w3.org/2000/svg">
<g clip-path="url(#clip0_98_39341)">
<path d="M31.125 0.5H9.875C4.69733 0.5 0.5 4.69733 0.5 9.875V31.125C0.5 36.3027 4.69733 40.5 9.875 40.5H31.125C36.3027 40.5 40.5 36.3027 40.5 31.125V9.875C40.5 4.69733 36.3027 0.5 31.125 0.5Z" fill="white"/>
<path d="M31.125 0.5H9.875C4.69733 0.5 0.5 4.69733 0.5 9.875V31.125C0.5 36.3027 4.69733 40.5 9.875 40.5H31.125C36.3027 40.5 40.5 36.3027 40.5 31.125V9.875C40.5 4.69733 36.3027 0.5 31.125 0.5Z" fill="#0172B4"/>
<path d="M29.3617 34.5133H33.9352C34.1009 34.5133 34.2598 34.4475 34.377 34.3303C34.4942 34.2131 34.5601 34.0542 34.5602 33.8884L34.5625 24.2256C34.5625 19.1752 33.4742 15.2931 27.5722 15.2931C25.3286 15.2097 23.2128 16.3663 22.0711 18.2975C22.0655 18.3069 22.057 18.3142 22.0469 18.3183C22.0368 18.3224 22.0256 18.3231 22.0151 18.3202C22.0045 18.3173 21.9952 18.3111 21.9885 18.3025C21.9819 18.2938 21.9782 18.2833 21.9781 18.2723V16.3844C21.9781 16.2186 21.9123 16.0596 21.7951 15.9424C21.6779 15.8252 21.5189 15.7594 21.3531 15.7594H17.013C16.8472 15.7594 16.6882 15.8252 16.571 15.9424C16.4538 16.0596 16.388 16.2186 16.388 16.3844V33.8875C16.388 34.0533 16.4538 34.2122 16.571 34.3294C16.6882 34.4467 16.8472 34.5125 17.013 34.5125H21.5861C21.7519 34.5125 21.9108 34.4467 22.028 34.3294C22.1452 34.2122 22.2111 34.0533 22.2111 33.8875V25.2355C22.2111 22.7891 22.6752 20.4198 25.7081 20.4198C28.698 20.4198 28.7367 23.2192 28.7367 25.3939V33.8883C28.7367 34.054 28.8026 34.213 28.9198 34.3302C29.037 34.4474 29.196 34.5133 29.3617 34.5133ZM6.4375 9.81672C6.4375 11.6706 7.96359 13.1959 9.8175 13.1959C11.6709 13.1958 13.1961 11.6695 13.1961 9.81609C13.1958 7.96266 11.6705 6.4375 9.81687 6.4375C7.96281 6.4375 6.4375 7.96297 6.4375 9.81672ZM7.52484 34.5133H12.1041C12.2698 34.5133 12.4288 34.4474 12.546 34.3302C12.6632 34.213 12.7291 34.054 12.7291 33.8883V16.3844C12.7291 16.2186 12.6632 16.0596 12.546 15.9424C12.4288 15.8252 12.2698 15.7594 12.1041 15.7594H7.52484C7.35908 15.7594 7.20011 15.8252 7.0829 15.9424C6.96569 16.0596 6.89984 16.2186 6.89984 16.3844V33.8883C6.89984 34.054 6.96569 34.213 7.0829 34.3302C7.20011 34.4474 7.35908 34.5133 7.52484 34.5133Z" fill="white"/>
</g>
<defs>
<clipPath id="clip0_98_39341">
<rect width="40" height="40" fill="white" transform="translate(0.5 0.5)"/>
</clipPath>
</defs>
</svg>
