<svg width="90" height="90" viewBox="0 0 90 90" fill="none" xmlns="http://www.w3.org/2000/svg">
<rect width="56" height="44" transform="matrix(-1 0 0 1 73 23)" fill="white"/>
<path d="M45 0C69.795 0 90 20.205 90 45C90 69.795 69.795 90 45 90C20.205 90 0 69.795 0 45C0 20.205 20.205 0 45 0ZM36.945 58.5C35.64 59.805 35.64 61.965 36.945 63.27C37.62 63.945 38.475 64.26 39.33 64.26C40.185 64.26 41.04 63.945 41.715 63.27L57.6 47.385C58.905 46.08 58.905 43.92 57.6 42.615L41.715 26.73C40.41 25.425 38.25 25.425 36.945 26.73C35.64 28.035 35.64 30.195 36.945 31.5L50.445 45L36.945 58.5Z" fill="#F7941D"/>
</svg>
