<svg width="31" height="31" viewBox="0 0 31 31" fill="none" xmlns="http://www.w3.org/2000/svg">
<path d="M27.7569 13.0519H26.75V13H15.5V18H22.5644C21.5338 20.9106 18.7644 23 15.5 23C11.3581 23 8 19.6419 8 15.5C8 11.3581 11.3581 8 15.5 8C17.4119 8 19.1513 8.72125 20.4756 9.89937L24.0112 6.36375C21.7787 4.28312 18.7925 3 15.5 3C8.59688 3 3 8.59688 3 15.5C3 22.4031 8.59688 28 15.5 28C22.4031 28 28 22.4031 28 15.5C28 14.6619 27.9137 13.8438 27.7569 13.0519Z" fill="#FFC107"/>
<path d="M4.44141 9.68188L8.54828 12.6938C9.65953 9.9425 12.3508 8 15.5002 8C17.412 8 19.1514 8.72125 20.4758 9.89937L24.0114 6.36375C21.7789 4.28312 18.7927 3 15.5002 3C10.6989 3 6.53516 5.71062 4.44141 9.68188Z" fill="#FF3D00"/>
<path d="M15.5002 27.9999C18.7289 27.9999 21.6627 26.7643 23.8808 24.7549L20.0121 21.4812C18.7149 22.4677 17.1299 23.0012 15.5002 22.9999C12.2489 22.9999 9.48832 20.9268 8.44832 18.0337L4.37207 21.1743C6.44082 25.2224 10.6421 27.9999 15.5002 27.9999Z" fill="#4CAF50"/>
<path d="M27.7569 13.0519H26.75V13H15.5V18H22.5644C22.0714 19.3853 21.1833 20.5957 20.01 21.4819L20.0119 21.4806L23.8806 24.7544C23.6069 25.0031 28 21.75 28 15.5C28 14.6619 27.9137 13.8438 27.7569 13.0519Z" fill="#1976D2"/>
</svg>
