<svg width="52" height="52" viewBox="0 0 52 52" fill="none" xmlns="http://www.w3.org/2000/svg">
<circle cx="26" cy="26" r="26" fill="#00A651" fill-opacity="0.69"/>
<path d="M26.0677 15.6C27.2936 15.6 28.4693 16.087 29.3361 16.9538C30.2029 17.8206 30.6899 18.9963 30.6899 20.2222C30.6899 21.4481 30.2029 22.6238 29.3361 23.4906C28.4693 24.3574 27.2936 24.8444 26.0677 24.8444C24.8418 24.8444 23.6661 24.3574 22.7993 23.4906C21.9324 22.6238 21.4455 21.4481 21.4455 20.2222C21.4455 18.9963 21.9324 17.8206 22.7993 16.9538C23.6661 16.087 24.8418 15.6 26.0677 15.6ZM26.0677 27.1555C31.1752 27.1555 35.3121 29.224 35.3121 31.7778V34.0889H16.8232V31.7778C16.8232 29.224 20.9601 27.1555 26.0677 27.1555Z" fill="white"/>
</svg>
