<svg width="90" height="90" viewBox="0 0 90 90" fill="none" xmlns="http://www.w3.org/2000/svg">
<rect x="17" y="23" width="56" height="44" fill="white"/>
<path d="M45 0C20.205 0 0 20.205 0 45C0 69.795 20.205 90 45 90C69.795 90 90 69.795 90 45C90 20.205 69.795 0 45 0ZM53.055 58.5C54.36 59.805 54.36 61.965 53.055 63.27C52.38 63.945 51.525 64.26 50.67 64.26C49.815 64.26 48.96 63.945 48.285 63.27L32.4 47.385C31.095 46.08 31.095 43.92 32.4 42.615L48.285 26.73C49.59 25.425 51.75 25.425 53.055 26.73C54.36 28.035 54.36 30.195 53.055 31.5L39.555 45L53.055 58.5Z" fill="#F7941D"/>
</svg>
