<svg width="41" height="41" viewBox="0 0 41 41" fill="none" xmlns="http://www.w3.org/2000/svg">
<path d="M36.953 2.00928H4.0499C2.9229 2.00928 2.00928 2.9229 2.00928 4.0499V36.953C2.00928 38.08 2.9229 38.9937 4.0499 38.9937H36.953C38.08 38.9937 38.9937 38.08 38.9937 36.953V4.0499C38.9937 2.9229 38.08 2.00928 36.953 2.00928Z" fill="#1D70DD"/>
<path d="M22.8845 39.5V24.9033H27.6014L28.3068 19.2149H22.8845V15.584C22.8845 13.9374 23.3261 12.8131 25.5987 12.8131H28.5V7.71714C27.0951 7.56509 25.6832 7.49279 24.2707 7.50057C20.0936 7.50057 17.2169 10.1441 17.2169 15.0203V19.2149H12.5V24.9033H17.2169V39.5H22.8845Z" fill="white"/>
</svg>
